<svg width="3856" height="1134" viewBox="0 0 3856 1134" fill="none" xmlns="http://www.w3.org/2000/svg">
<path d="M3855.5 567C3855.5 645.039 3801.72 719.49 3704.2 787.292C3606.7 855.084 3465.59 916.154 3291.16 967.45C2942.32 1070.04 2460.37 1133.5 1928 1133.5C1395.63 1133.5 913.681 1070.04 564.839 967.45C390.415 916.154 249.297 855.084 151.797 787.292C54.2823 719.49 0.5 645.039 0.5 567C0.5 488.961 54.2823 414.511 151.797 346.709C249.297 278.917 390.415 217.846 564.839 166.55C913.681 63.9602 1395.63 0.5 1928 0.5C2460.37 0.5 2942.32 63.9602 3291.16 166.55C3465.59 217.846 3606.7 278.917 3704.2 346.709C3801.72 414.511 3855.5 488.961 3855.5 567Z" stroke="#F2EBFF"/>
<path d="M3777.01 567C3777.01 641.853 3725.42 713.266 3631.88 778.307C3538.35 843.337 3402.98 901.92 3235.66 951.127C2901.02 1049.54 2438.7 1110.42 1928 1110.42C1417.31 1110.42 954.982 1049.54 620.345 951.127C453.023 901.92 317.653 843.337 224.125 778.307C130.582 713.266 78.9961 641.853 78.9961 567C78.9961 492.148 130.582 420.735 224.125 355.694C317.653 290.664 453.023 232.081 620.345 182.873C954.982 84.4609 1417.31 23.5845 1928 23.5845C2438.7 23.5845 2901.02 84.4609 3235.66 182.873C3402.98 232.081 3538.35 290.664 3631.88 355.694C3725.42 420.735 3777.01 492.148 3777.01 567Z" stroke="#F2EBFF"/>
<path d="M3699.12 567C3699.12 638.69 3649.72 707.091 3560.11 769.391C3470.53 831.681 3340.86 887.796 3180.58 934.931C2860.04 1029.2 2417.19 1087.51 1928 1087.51C1438.81 1087.51 995.959 1029.2 675.416 934.931C515.141 887.796 385.474 831.681 295.887 769.391C206.285 707.091 156.879 638.69 156.879 567C156.879 495.311 206.285 426.91 295.887 364.61C385.474 302.32 515.141 246.204 675.416 199.07C995.959 104.802 1438.81 46.4893 1928 46.4893C2417.19 46.4893 2860.04 104.802 3180.58 199.07C3340.86 246.204 3470.53 302.32 3560.11 364.61C3649.72 426.91 3699.12 495.311 3699.12 567Z" stroke="#F2EBFF"/>
<path d="M3616.68 567.001C3616.68 635.343 3569.58 700.554 3484.15 759.954C3398.74 819.343 3275.11 872.846 3122.29 917.787C2816.67 1007.67 2394.42 1063.27 1928 1063.27C1461.58 1063.27 1039.34 1007.67 733.714 917.787C580.899 872.846 457.269 819.343 371.854 759.954C286.424 700.554 239.324 635.343 239.324 567.001C239.324 498.659 286.424 433.447 371.854 374.047C457.269 314.658 580.899 261.155 733.714 216.214C1039.34 126.334 1461.58 70.7349 1928 70.7349C2394.42 70.7349 2816.67 126.334 3122.29 216.214C3275.11 261.155 3398.74 314.658 3484.15 374.047C3569.58 433.447 3616.68 498.659 3616.68 567.001Z" stroke="#F2EBFF"/>
<path d="M3534.43 567C3534.43 632.002 3489.63 694.033 3408.37 750.538C3327.11 807.034 3209.51 857.932 3064.13 900.684C2773.39 986.187 2371.71 1039.08 1928 1039.08C1484.29 1039.08 1082.6 986.187 791.864 900.684C646.49 857.932 528.882 807.034 447.629 750.538C366.361 694.033 321.562 632.002 321.562 567C321.562 501.997 366.361 439.967 447.629 383.461C528.882 326.966 646.49 276.068 791.864 233.316C1082.6 147.813 1484.29 94.9209 1928 94.9209C2371.71 94.9209 2773.39 147.813 3064.13 233.316C3209.51 276.068 3327.11 326.966 3408.37 383.461C3489.63 439.967 3534.43 501.997 3534.43 567Z" stroke="#F2EBFF"/>
<path d="M3452.19 567C3452.19 628.663 3409.7 687.512 3332.59 741.124C3255.5 794.726 3143.91 843.018 3005.98 883.582C2730.12 964.708 2349 1014.89 1928 1014.89C1507 1014.89 1125.88 964.708 850.022 883.582C712.09 843.018 600.504 794.726 523.412 741.124C446.306 687.512 403.809 628.663 403.809 567C403.809 505.337 446.306 446.488 523.412 392.876C600.504 339.274 712.09 290.982 850.022 250.418C1125.88 169.292 1507 119.107 1928 119.107C2349 119.107 2730.12 169.292 3005.98 250.418C3143.91 290.982 3255.5 339.274 3332.59 392.876C3409.7 446.488 3452.19 505.337 3452.19 567Z" stroke="#F2EBFF"/>
<path d="M3369.95 567.001C3369.95 625.324 3329.76 680.992 3256.81 731.71C3183.88 782.418 3078.32 828.104 2947.83 866.48C2686.85 943.229 2326.29 990.707 1928 990.707C1529.71 990.707 1169.15 943.229 908.176 866.48C777.685 828.104 672.121 782.418 599.191 731.71C526.246 680.992 486.051 625.324 486.051 567.001C486.051 508.677 526.246 453.009 599.191 402.291C672.121 351.583 777.685 305.897 908.176 267.521C1169.15 190.772 1529.71 143.294 1928 143.294C2326.29 143.294 2686.85 190.772 2947.83 267.521C3078.32 305.897 3183.88 351.583 3256.81 402.291C3329.76 453.009 3369.95 508.677 3369.95 567.001Z" stroke="#F2EBFF"/>
<path d="M3287.71 567C3287.71 621.985 3249.81 674.471 3181.03 722.295C3112.26 770.11 3012.72 813.19 2889.67 849.377C2643.58 921.75 2303.58 966.52 1928 966.52C1552.42 966.52 1212.42 921.75 966.329 849.377C843.28 813.19 743.738 770.11 674.97 722.295C606.187 674.471 568.293 621.985 568.293 567C568.293 512.016 606.187 459.53 674.97 411.705C743.738 363.891 843.28 320.811 966.329 284.624C1212.42 212.251 1552.42 167.481 1928 167.481C2303.58 167.481 2643.58 212.251 2889.67 284.624C3012.72 320.811 3112.26 363.891 3181.03 411.705C3249.81 459.53 3287.71 512.016 3287.71 567Z" stroke="#F2EBFF"/>
<path d="M3205.46 567C3205.46 618.645 3169.87 667.95 3105.25 712.881C3040.64 757.802 2947.12 798.276 2831.52 832.275C2600.31 900.27 2280.87 942.333 1928 942.333C1575.13 942.333 1255.69 900.27 1024.48 832.275C908.876 798.276 815.356 757.802 750.749 712.881C686.128 667.95 650.535 618.645 650.535 567C650.535 515.356 686.128 466.051 750.749 421.12C815.356 376.199 908.876 335.725 1024.48 301.726C1255.69 233.731 1575.13 191.667 1928 191.667C2280.87 191.667 2600.31 233.731 2831.52 301.726C2947.12 335.725 3040.64 376.199 3105.25 421.12C3169.87 466.051 3205.46 515.356 3205.46 567Z" stroke="#F2EBFF"/>
<path d="M3123.22 567C3123.22 615.306 3089.93 661.429 3029.47 703.466C2969.02 745.494 2881.53 783.362 2773.36 815.172C2557.04 878.791 2258.15 918.147 1928 918.147C1597.84 918.147 1298.96 878.791 1082.64 815.172C974.471 783.362 886.973 745.494 826.529 703.466C766.069 661.429 732.777 615.306 732.777 567C732.777 518.695 766.069 472.572 826.529 430.534C886.973 388.507 974.471 350.639 1082.64 318.829C1298.96 255.21 1597.84 215.854 1928 215.854C2258.15 215.854 2557.04 255.21 2773.36 318.829C2881.53 350.639 2969.02 388.507 3029.47 430.534C3089.93 472.572 3123.22 518.695 3123.22 567Z" stroke="#F2EBFF"/>
<path d="M3047.31 567.001C3047.31 612.223 3016.14 655.41 2959.52 694.776C2902.92 734.133 2820.98 769.595 2719.68 799.386C2517.09 858.964 2237.19 895.821 1928 895.821C1618.81 895.821 1338.91 858.964 1136.32 799.386C1035.02 769.595 953.084 734.133 896.481 694.776C839.863 655.41 808.695 612.223 808.695 567.001C808.695 521.778 839.863 478.591 896.481 439.225C953.084 399.868 1035.02 364.406 1136.32 334.616C1338.91 275.037 1618.81 238.18 1928 238.18C2237.19 238.18 2517.09 275.037 2719.68 334.616C2820.98 364.406 2902.92 399.868 2959.52 439.225C3016.14 478.591 3047.31 521.778 3047.31 567.001Z" stroke="#F2EBFF"/>
<path d="M2958.74 567C2958.74 608.627 2930.05 648.387 2877.91 684.638C2825.79 720.878 2750.33 753.534 2657.05 780.968C2470.49 835.832 2212.73 869.774 1928 869.774C1643.26 869.774 1385.5 835.832 1198.95 780.968C1105.66 753.534 1030.21 720.878 978.087 684.638C925.951 648.387 897.262 608.627 897.262 567C897.262 525.374 925.951 485.614 978.087 449.363C1030.21 413.123 1105.66 380.467 1198.95 353.033C1385.5 298.169 1643.26 264.227 1928 264.227C2212.73 264.227 2470.49 298.169 2657.05 353.033C2750.33 380.467 2825.79 413.123 2877.91 449.363C2930.05 485.614 2958.74 525.374 2958.74 567Z" stroke="#F2EBFF"/>
<path d="M2876.49 567.001C2876.49 605.287 2850.1 641.867 2802.13 675.223C2754.17 708.57 2684.74 738.62 2598.9 763.865C2427.22 814.353 2190.02 845.588 1928 845.588C1665.97 845.588 1428.78 814.353 1257.1 763.865C1171.26 738.62 1101.83 708.57 1053.87 675.223C1005.89 641.867 979.504 605.287 979.504 567.001C979.504 528.714 1005.89 492.135 1053.87 458.778C1101.83 425.431 1171.26 395.381 1257.1 370.136C1428.78 319.648 1665.97 288.414 1928 288.414C2190.02 288.414 2427.22 319.648 2598.9 370.136C2684.74 395.381 2754.17 425.431 2802.13 458.778C2850.1 492.135 2876.49 528.714 2876.49 567.001Z" stroke="#F2EBFF"/>
<path d="M2794.25 567.001C2794.25 601.948 2770.17 635.346 2726.35 665.809C2682.56 696.262 2619.15 723.706 2540.75 746.763C2383.95 792.874 2167.31 821.401 1928 821.401C1688.69 821.401 1472.05 792.874 1315.26 746.763C1236.86 723.706 1173.45 696.262 1129.65 665.809C1085.84 635.346 1061.75 601.948 1061.75 567.001C1061.75 532.053 1085.84 498.655 1129.65 468.192C1173.45 437.74 1236.86 410.295 1315.26 387.238C1472.05 341.127 1688.69 312.6 1928 312.6C2167.31 312.6 2383.95 341.127 2540.75 387.238C2619.15 410.295 2682.56 437.74 2726.35 468.192C2770.17 498.655 2794.25 532.053 2794.25 567.001Z" stroke="#F2EBFF"/>
<path d="M2705.68 567C2705.68 598.352 2684.07 628.323 2644.74 655.67C2605.43 683.007 2548.5 707.645 2478.12 728.345C2337.35 769.742 2142.85 795.354 1928 795.354C1713.14 795.354 1518.65 769.742 1377.88 728.345C1307.5 707.645 1250.57 683.007 1211.26 655.67C1171.92 628.323 1150.32 598.352 1150.32 567C1150.32 535.649 1171.92 505.678 1211.26 478.331C1250.57 450.994 1307.5 426.356 1377.88 405.656C1518.65 364.259 1713.14 338.647 1928 338.647C2142.85 338.647 2337.35 364.259 2478.12 405.656C2548.5 426.356 2605.43 450.994 2644.74 478.331C2684.07 505.678 2705.68 535.649 2705.68 567Z" stroke="#F2EBFF"/>
<path d="M2623.44 567.001C2623.44 595.012 2604.13 621.802 2568.96 646.256C2533.81 670.699 2482.91 692.731 2419.96 711.242C2294.08 748.263 2120.14 771.168 1928 771.168C1735.85 771.168 1561.92 748.263 1436.04 711.242C1373.09 692.731 1322.19 670.699 1287.03 646.256C1251.87 621.802 1232.56 595.012 1232.56 567.001C1232.56 538.989 1251.87 512.199 1287.03 487.745C1322.19 463.302 1373.09 441.27 1436.04 422.759C1561.92 385.738 1735.85 362.833 1928 362.833C2120.14 362.833 2294.08 385.738 2419.96 422.759C2482.91 441.27 2533.81 463.302 2568.96 487.745C2604.13 512.199 2623.44 538.989 2623.44 567.001Z" stroke="#F2EBFF"/>
<path d="M2541.39 567.001C2541.39 591.681 2524.38 615.298 2493.37 636.864C2462.36 658.421 2417.47 677.854 2361.95 694.182C2250.91 726.836 2097.49 747.04 1928 747.04C1758.51 747.04 1605.08 726.836 1494.05 694.182C1438.53 677.854 1393.63 658.421 1362.63 636.864C1331.61 615.298 1314.6 591.681 1314.6 567.001C1314.6 542.321 1331.61 518.704 1362.63 497.138C1393.63 475.581 1438.53 456.148 1494.05 439.82C1605.08 407.166 1758.51 386.962 1928 386.962C2097.49 386.962 2250.91 407.166 2361.95 439.82C2417.47 456.148 2462.36 475.581 2493.37 497.138C2524.38 518.704 2541.39 542.321 2541.39 567.001Z" stroke="#F2EBFF"/>
<path d="M2458.96 567.001C2458.96 588.333 2444.25 608.761 2417.41 627.427C2390.58 646.082 2351.72 662.903 2303.66 677.037C2207.54 705.304 2074.72 722.794 1928 722.794C1781.28 722.794 1648.46 705.304 1552.35 677.037C1504.29 662.903 1465.43 646.082 1438.6 627.427C1411.75 608.761 1397.05 588.333 1397.05 567.001C1397.05 545.668 1411.75 525.24 1438.6 506.574C1465.43 487.919 1504.29 471.098 1552.35 456.964C1648.46 428.697 1781.28 411.207 1928 411.207C2074.72 411.207 2207.54 428.697 2303.66 456.964C2351.72 471.098 2390.58 487.919 2417.41 506.574C2444.25 525.24 2458.96 545.668 2458.96 567.001Z" stroke="#F2EBFF"/>
<path d="M2376.91 567.001C2376.91 585.002 2364.5 602.256 2341.81 618.035C2319.13 633.804 2286.28 648.025 2245.64 659.977C2164.37 683.877 2052.07 698.667 1928 698.667C1803.93 698.667 1691.63 683.877 1610.36 659.977C1569.72 648.025 1536.87 633.804 1514.19 618.035C1491.5 602.256 1479.09 585.002 1479.09 567.001C1479.09 549 1491.5 531.746 1514.19 515.966C1536.87 500.197 1569.72 485.976 1610.36 474.025C1691.63 450.125 1803.93 435.335 1928 435.335C2052.07 435.335 2164.37 450.125 2245.64 474.025C2286.28 485.976 2319.13 500.197 2341.81 515.966C2364.5 531.746 2376.91 549 2376.91 567.001Z" stroke="#F2EBFF"/>
<path d="M2294.47 567.001C2294.47 581.654 2284.37 595.719 2265.84 608.598C2247.33 621.466 2220.52 633.075 2187.34 642.833C2120.99 662.346 2029.3 674.422 1928 674.422C1826.69 674.422 1735 662.346 1668.65 642.833C1635.47 633.075 1608.66 621.466 1590.15 608.598C1571.63 595.719 1561.53 581.654 1561.53 567.001C1561.53 552.347 1571.63 538.282 1590.15 525.403C1608.66 512.535 1635.47 500.926 1668.65 491.169C1735 471.656 1826.69 459.58 1928 459.58C2029.3 459.58 2120.99 471.656 2187.34 491.169C2220.52 500.926 2247.33 512.535 2265.84 525.403C2284.37 538.282 2294.47 552.347 2294.47 567.001Z" stroke="#F2EBFF"/>
<path d="M2224.88 567.001C2224.88 578.829 2216.73 590.201 2201.73 600.632C2186.74 611.052 2165.02 620.456 2138.14 628.361C2084.38 644.171 2010.09 653.956 1928 653.956C1845.92 653.956 1771.62 644.171 1717.86 628.361C1690.98 620.456 1669.26 611.052 1654.28 600.632C1639.28 590.201 1631.12 578.829 1631.12 567.001C1631.12 555.172 1639.28 543.8 1654.28 533.369C1669.26 522.949 1690.98 513.545 1717.86 505.64C1771.62 489.83 1845.92 480.045 1928 480.045C2010.09 480.045 2084.38 489.83 2138.14 505.64C2165.02 513.545 2186.74 522.949 2201.73 533.369C2216.73 543.8 2224.88 555.172 2224.88 567.001Z" stroke="#F2EBFF"/>
<path d="M2142.63 567.001C2142.63 575.489 2136.78 583.681 2125.94 591.217C2115.12 598.744 2099.42 605.542 2079.98 611.259C2041.11 622.691 1987.37 629.77 1928 629.77C1868.62 629.77 1814.89 622.691 1776.01 611.259C1756.57 605.542 1740.88 598.744 1730.05 591.217C1719.21 583.681 1713.36 575.489 1713.36 567.001C1713.36 558.512 1719.21 550.32 1730.05 542.784C1740.88 535.258 1756.57 528.459 1776.01 522.742C1814.89 511.31 1868.62 504.231 1928 504.231C1987.37 504.231 2041.11 511.31 2079.98 522.742C2099.42 528.459 2115.12 535.258 2125.94 542.784C2136.78 550.32 2142.63 558.512 2142.63 567.001Z" stroke="#F2EBFF"/>
<path d="M2073.05 567.001C2073.05 572.664 2069.14 578.163 2061.82 583.251C2054.52 588.329 2043.92 592.922 2030.78 596.788C2004.5 604.517 1968.16 609.304 1928 609.304C1887.84 609.304 1851.51 604.517 1825.22 596.788C1812.08 592.922 1801.48 588.329 1794.18 583.251C1786.86 578.163 1782.95 572.664 1782.95 567.001C1782.95 561.338 1786.86 555.838 1794.18 550.75C1801.48 545.672 1812.08 541.079 1825.22 537.214C1851.51 529.485 1887.84 524.697 1928 524.697C1968.16 524.697 2004.5 529.485 2030.78 537.214C2043.92 541.079 2054.52 545.672 2061.82 550.75C2069.14 555.838 2073.05 561.338 2073.05 567.001Z" stroke="#F2EBFF"/>
<path d="M2010.08 567C2010.08 570.083 2007.94 573.125 2003.81 575.98C1999.69 578.823 1993.7 581.404 1986.25 583.579C1971.37 587.929 1950.77 590.625 1928 590.625C1905.23 590.625 1884.63 587.929 1869.74 583.579C1862.3 581.404 1856.31 578.823 1852.19 575.98C1848.06 573.125 1845.91 570.083 1845.91 567C1845.91 563.918 1848.06 560.875 1852.19 558.021C1856.31 555.178 1862.3 552.597 1869.74 550.421C1884.63 546.072 1905.23 543.375 1928 543.375C1950.77 543.375 1971.37 546.072 1986.25 550.421C1993.7 552.597 1999.69 555.178 2003.81 558.021C2007.94 560.875 2010.08 563.918 2010.08 567Z" stroke="#F2EBFF"/>
</svg>
