<svg width="191" height="196" viewBox="0 0 191 196" fill="none" xmlns="http://www.w3.org/2000/svg">
<g id="Bug">
<path id="Vector (Stroke)" fill-rule="evenodd" clip-rule="evenodd" d="M95.3023 20.0367C69.6385 20.0367 50.4865 38.8569 50.4865 60.1101C50.4865 65.6431 46.0277 70.1284 40.5274 70.1284C35.0272 70.1284 30.5684 65.6431 30.5684 60.1101C30.5684 26.0366 60.467 0 95.3023 0C130.138 0 160.036 26.0366 160.036 60.1101C160.036 65.6431 155.577 70.1284 150.077 70.1284C144.577 70.1284 140.118 65.6431 140.118 60.1101C140.118 38.8569 120.966 20.0367 95.3023 20.0367Z" fill="#6100FF"/>
<path id="Vector (Stroke)_2" fill-rule="evenodd" clip-rule="evenodd" d="M40.5274 120.478C46.0277 120.478 50.4865 124.963 50.4865 130.496C50.4865 151.749 69.6385 170.569 95.3023 170.569C120.966 170.569 140.118 151.749 140.118 130.496C140.118 124.963 144.577 120.478 150.077 120.478C155.577 120.478 160.036 124.963 160.036 130.496C160.036 164.569 130.138 190.606 95.3023 190.606C60.467 190.606 30.5684 164.569 30.5684 130.496C30.5684 124.963 35.0272 120.478 40.5274 120.478Z" fill="#6100FF"/>
<path id="Vector (Stroke)_3" fill-rule="evenodd" clip-rule="evenodd" d="M0 96.2024C0 90.7404 4.49142 86.3125 10.0319 86.3125H180.574C186.114 86.3125 190.606 90.7404 190.606 96.2024C190.606 101.664 186.114 106.092 180.574 106.092H10.0319C4.49142 106.092 0 101.664 0 96.2024Z" fill="#6100FF"/>
<path id="Vector (Stroke)_4" fill-rule="evenodd" clip-rule="evenodd" d="M96.2024 131.267C101.664 131.267 106.092 135.658 106.092 141.075V175.403C106.092 180.82 101.664 185.212 96.2024 185.212C90.7404 185.212 86.3125 180.82 86.3125 175.403V141.075C86.3125 135.658 90.7404 131.267 96.2024 131.267Z" fill="#6100FF"/>
<path id="Vector (Stroke)_5" fill-rule="evenodd" clip-rule="evenodd" d="M33.4274 3.00955C37.2395 -1.00318 43.4201 -1.00318 47.2322 3.00955L61.8744 18.4224C65.6865 22.4351 65.6865 28.941 61.8744 32.9538C58.0623 36.9665 51.8817 36.9665 48.0696 32.9538L33.4274 17.5409C29.6153 13.5282 29.6153 7.02227 33.4274 3.00955Z" fill="#6100FF"/>
<path id="Vector (Stroke)_6" fill-rule="evenodd" clip-rule="evenodd" d="M157.178 3.00955C160.99 7.02227 160.99 13.5282 157.178 17.5409L142.536 32.9538C138.724 36.9665 132.543 36.9665 128.731 32.9538C124.919 28.941 124.919 22.4351 128.731 18.4224L143.373 3.00955C147.185 -1.00318 153.366 -1.00318 157.178 3.00955Z" fill="#6100FF"/>
<path id="Vector (Stroke)_7" fill-rule="evenodd" clip-rule="evenodd" d="M61.8744 163.047C65.6865 167.059 65.6865 173.565 61.8744 177.578L47.2322 192.991C43.4201 197.004 37.2395 197.004 33.4274 192.991C29.6153 188.978 29.6153 182.472 33.4274 178.459L48.0696 163.047C51.8817 159.034 58.0623 159.034 61.8744 163.047Z" fill="#6100FF"/>
<path id="Vector (Stroke)_8" fill-rule="evenodd" clip-rule="evenodd" d="M128.731 163.047C132.543 159.034 138.724 159.034 142.536 163.047L157.178 178.459C160.99 182.472 160.99 188.978 157.178 192.991C153.366 197.004 147.185 197.004 143.373 192.991L128.731 177.578C124.919 173.565 124.919 167.059 128.731 163.047Z" fill="#6100FF"/>
</g>
</svg>
