<svg width="710" height="1022" viewBox="0 0 710 1022" fill="none" xmlns="http://www.w3.org/2000/svg">
<path fill-rule="evenodd" clip-rule="evenodd" d="M606.928 8C606.928 3.58172 610.509 0 614.928 0H799.504C803.923 0 807.504 3.58172 807.504 8V192.804C807.504 197.222 803.923 200.804 799.504 200.804H614.928C610.509 200.804 606.928 197.222 606.928 192.804V8ZM615.926 0.999022C611.507 0.999022 607.926 4.58073 607.926 8.99901V191.804C607.926 196.223 611.507 199.804 615.926 199.804H798.506C802.925 199.804 806.506 196.223 806.506 191.804V8.99902C806.506 4.58074 802.925 0.999022 798.506 0.999022H615.926Z" fill="#6100FF"/>
<path fill-rule="evenodd" clip-rule="evenodd" d="M281.071 237.981C277.95 234.853 277.95 229.782 281.071 226.654L411.6 95.8071C414.72 92.6791 419.779 92.6791 422.9 95.8071L553.428 226.654C556.549 229.782 556.549 234.853 553.428 237.981L422.9 368.828C419.779 371.956 414.72 371.956 411.6 368.828L281.071 237.981ZM282.481 226.654C279.361 229.782 279.361 234.853 282.481 237.981L411.6 367.414C414.72 370.542 419.779 370.542 422.9 367.414L552.018 237.981C555.138 234.853 555.138 229.782 552.018 226.654L422.9 97.2208C419.779 94.0928 414.72 94.0928 411.6 97.2208L282.481 226.654Z" fill="#6100FF"/>
<path fill-rule="evenodd" clip-rule="evenodd" d="M422.479 949.406C419.358 952.534 414.299 952.534 411.179 949.406L280.65 818.559C277.53 815.431 277.53 810.36 280.65 807.232L411.179 676.385C414.299 673.257 419.358 673.257 422.479 676.385L553.007 807.232C556.128 810.36 556.128 815.431 553.007 818.559L422.479 949.406ZM411.179 947.992C414.299 951.12 419.358 951.12 422.479 947.992L551.597 818.559C554.717 815.431 554.717 810.36 551.597 807.232L422.479 677.799C419.358 674.671 414.299 674.671 411.179 677.799L282.06 807.232C278.94 810.36 278.94 815.431 282.06 818.559L411.179 947.992Z" fill="#6100FF"/>
<path fill-rule="evenodd" clip-rule="evenodd" d="M807.504 1014C807.504 1018.42 803.922 1022 799.504 1022H614.927C610.509 1022 606.927 1018.42 606.927 1014V829.196C606.927 824.778 610.509 821.196 614.927 821.196H799.504C803.922 821.196 807.504 824.778 807.504 829.196V1014ZM798.506 1021C802.924 1021 806.506 1017.42 806.506 1013V830.196C806.506 825.777 802.924 822.196 798.506 822.196H615.925C611.507 822.196 607.925 825.777 607.925 830.196V1013C607.925 1017.42 611.507 1021 615.925 1021H798.506Z" fill="#6100FF"/>
<g filter="url(#filter0_d_1_4)">
<rect x="36" y="320" width="380.606" height="382" rx="8" fill="white"/>
<path fill-rule="evenodd" clip-rule="evenodd" d="M226.302 433.037C200.638 433.037 181.486 451.857 181.486 473.11C181.486 478.643 177.028 483.128 171.527 483.128C166.027 483.128 161.568 478.643 161.568 473.11C161.568 439.037 191.467 413 226.302 413C261.138 413 291.036 439.037 291.036 473.11C291.036 478.643 286.577 483.128 281.077 483.128C275.577 483.128 271.118 478.643 271.118 473.11C271.118 451.857 251.966 433.037 226.302 433.037Z" fill="#6100FF"/>
<path fill-rule="evenodd" clip-rule="evenodd" d="M171.527 533.478C177.028 533.478 181.486 537.963 181.486 543.496C181.486 564.749 200.638 583.569 226.302 583.569C251.966 583.569 271.118 564.749 271.118 543.496C271.118 537.963 275.577 533.478 281.077 533.478C286.577 533.478 291.036 537.963 291.036 543.496C291.036 577.569 261.138 603.606 226.302 603.606C191.467 603.606 161.568 577.569 161.568 543.496C161.568 537.963 166.027 533.478 171.527 533.478Z" fill="#6100FF"/>
<path fill-rule="evenodd" clip-rule="evenodd" d="M131 509.202C131 503.74 135.491 499.312 141.032 499.312H311.574C317.114 499.312 321.606 503.74 321.606 509.202C321.606 514.664 317.114 519.092 311.574 519.092H141.032C135.491 519.092 131 514.664 131 509.202Z" fill="#6100FF"/>
<path fill-rule="evenodd" clip-rule="evenodd" d="M227.202 544.267C232.664 544.267 237.092 548.658 237.092 554.075V588.403C237.092 593.82 232.664 598.212 227.202 598.212C221.74 598.212 217.312 593.82 217.312 588.403V554.075C217.312 548.658 221.74 544.267 227.202 544.267Z" fill="#6100FF"/>
<path fill-rule="evenodd" clip-rule="evenodd" d="M164.427 416.01C168.24 411.997 174.42 411.997 178.232 416.01L192.874 431.422C196.687 435.435 196.687 441.941 192.874 445.954C189.062 449.966 182.882 449.966 179.07 445.954L164.427 430.541C160.615 426.528 160.615 420.022 164.427 416.01Z" fill="#6100FF"/>
<path fill-rule="evenodd" clip-rule="evenodd" d="M288.178 416.01C291.99 420.022 291.99 426.528 288.178 430.541L273.536 445.954C269.724 449.966 263.543 449.966 259.731 445.954C255.919 441.941 255.919 435.435 259.731 431.422L274.373 416.01C278.185 411.997 284.366 411.997 288.178 416.01Z" fill="#6100FF"/>
<path fill-rule="evenodd" clip-rule="evenodd" d="M192.874 576.047C196.687 580.059 196.687 586.565 192.874 590.578L178.232 605.991C174.42 610.004 168.24 610.004 164.427 605.991C160.615 601.978 160.615 595.472 164.427 591.459L179.07 576.047C182.882 572.034 189.062 572.034 192.874 576.047Z" fill="#6100FF"/>
<path fill-rule="evenodd" clip-rule="evenodd" d="M259.731 576.047C263.543 572.034 269.724 572.034 273.536 576.047L288.178 591.459C291.99 595.472 291.99 601.978 288.178 605.991C284.366 610.004 278.185 610.004 274.373 605.991L259.731 590.578C255.919 586.565 255.919 580.059 259.731 576.047Z" fill="#6100FF"/>
</g>
<defs>
<filter id="filter0_d_1_4" x="0" y="320" width="452.605" height="478" filterUnits="userSpaceOnUse" color-interpolation-filters="sRGB">
<feFlood flood-opacity="0" result="BackgroundImageFix"/>
<feColorMatrix in="SourceAlpha" type="matrix" values="0 0 0 0 0 0 0 0 0 0 0 0 0 0 0 0 0 0 127 0" result="hardAlpha"/>
<feMorphology radius="24" operator="erode" in="SourceAlpha" result="effect1_dropShadow_1_4"/>
<feOffset dy="60"/>
<feGaussianBlur stdDeviation="30"/>
<feComposite in2="hardAlpha" operator="out"/>
<feColorMatrix type="matrix" values="0 0 0 0 0.380392 0 0 0 0 0 0 0 0 0 1 0 0 0 0.25 0"/>
<feBlend mode="normal" in2="BackgroundImageFix" result="effect1_dropShadow_1_4"/>
<feBlend mode="normal" in="SourceGraphic" in2="effect1_dropShadow_1_4" result="shape"/>
</filter>
</defs>
</svg>
