<svg width="47" height="37" viewBox="0 0 47 37" fill="none" xmlns="http://www.w3.org/2000/svg">
<rect x="0.9375" y="0.215454" width="46" height="36.4821" rx="18.2411" fill="#6100FF"/>
<path d="M29.9578 18.3534C30.1245 18.2843 30.276 18.183 30.4036 18.0553C30.5313 17.9278 30.6326 17.7763 30.7017 17.6096C30.7708 17.4428 30.8064 17.2641 30.8064 17.0836C30.8064 16.9032 30.7708 16.7244 30.7017 16.5577C30.6326 16.391 30.5313 16.2395 30.4036 16.1119L24.9099 10.6183C24.7823 10.4906 24.6308 10.3893 24.4641 10.3201C24.2974 10.251 24.1187 10.2155 23.9382 10.2155C23.7577 10.2155 23.579 10.251 23.4122 10.3201C23.2455 10.3893 23.094 10.4906 22.9665 10.6183L17.4728 16.1119C17.2151 16.3697 17.0703 16.7192 17.0703 17.0836C17.0703 17.4481 17.2151 17.7976 17.4728 18.0553C17.7305 18.313 18.08 18.4578 18.4445 18.4578C18.809 18.4578 19.1585 18.313 19.4162 18.0553L22.5648 14.905V25.3242C22.5648 25.6884 22.7095 26.0378 22.967 26.2953C23.2246 26.5529 23.5739 26.6976 23.9382 26.6976C24.3024 26.6976 24.6518 26.5529 24.9093 26.2953C25.1669 26.0378 25.3116 25.6884 25.3116 25.3242V14.905L28.4602 18.0553C28.5877 18.183 28.7392 18.2843 28.9059 18.3534C29.0727 18.4226 29.2514 18.4581 29.4319 18.4581C29.6124 18.4581 29.7911 18.4226 29.9578 18.3534Z" fill="white"/>
</svg>
