<svg width="63" height="63" viewBox="0 0 63 63" fill="none" xmlns="http://www.w3.org/2000/svg">
<circle cx="31.5001" cy="31.4996" r="31.0358" fill="#6100FF"/>
<path d="M44.5612 25.5616L28.5612 41.5616C28.4218 41.7015 28.2563 41.8124 28.0739 41.8881C27.8916 41.9638 27.6961 42.0028 27.4987 42.0028C27.3013 42.0028 27.1058 41.9638 26.9235 41.8881C26.7411 41.8124 26.5756 41.7015 26.4362 41.5616L19.4362 34.5616C19.2967 34.4221 19.186 34.2565 19.1105 34.0741C19.035 33.8918 18.9961 33.6965 18.9961 33.4991C18.9961 33.3018 19.035 33.1064 19.1105 32.9241C19.186 32.7418 19.2967 32.5762 19.4362 32.4366C19.5757 32.2971 19.7414 32.1864 19.9237 32.1109C20.106 32.0354 20.3014 31.9965 20.4987 31.9965C20.696 31.9965 20.8914 32.0354 21.0737 32.1109C21.256 32.1864 21.4217 32.2971 21.5612 32.4366L27.4999 38.3754L42.4387 23.4391C42.7205 23.1573 43.1027 22.999 43.5012 22.999C43.8997 22.999 44.2819 23.1573 44.5637 23.4391C44.8455 23.7209 45.0038 24.1031 45.0038 24.5016C45.0038 24.9001 44.8455 25.2823 44.5637 25.5641L44.5612 25.5616Z" fill="white"/>
</svg>
