<svg width="33" height="32" viewBox="0 0 33 32" fill="none" xmlns="http://www.w3.org/2000/svg">
<g id="MagnifyingGlass">
<path id="Vector" d="M29.2078 27.2923L22.949 21.0348C24.7631 18.8569 25.6676 16.0635 25.4746 13.2357C25.2815 10.4079 24.0057 7.76337 21.9125 5.85226C19.8193 3.94116 17.0698 2.91061 14.2362 2.97501C11.4025 3.03941 8.70274 4.1938 6.69851 6.19802C4.69429 8.20225 3.5399 10.902 3.4755 13.7357C3.4111 16.5694 4.44164 19.3188 6.35275 21.412C8.26385 23.5052 10.9084 24.781 13.7362 24.9741C16.564 25.1672 19.3574 24.2626 21.5353 22.4485L27.7928 28.7073C27.8857 28.8002 27.996 28.8739 28.1174 28.9242C28.2388 28.9745 28.3689 29.0004 28.5003 29.0004C28.6317 29.0004 28.7618 28.9745 28.8832 28.9242C29.0046 28.8739 29.1149 28.8002 29.2078 28.7073C29.3007 28.6144 29.3744 28.5041 29.4247 28.3827C29.475 28.2613 29.5008 28.1312 29.5008 27.9998C29.5008 27.8684 29.475 27.7383 29.4247 27.6169C29.3744 27.4955 29.3007 27.3852 29.2078 27.2923ZM5.50029 13.9998C5.50029 12.2198 6.02813 10.4797 7.01706 8.99966C8.00599 7.51962 9.4116 6.36607 11.0561 5.68488C12.7007 5.00369 14.5103 4.82546 16.2561 5.17273C18.0019 5.52 19.6056 6.37716 20.8642 7.63584C22.1229 8.89451 22.9801 10.4982 23.3274 12.244C23.6746 13.9898 23.4964 15.7994 22.8152 17.4439C22.134 19.0885 20.9805 20.4941 19.5004 21.483C18.0204 22.472 16.2803 22.9998 14.5003 22.9998C12.1141 22.9972 9.8265 22.0481 8.13925 20.3608C6.45199 18.6736 5.50293 16.3859 5.50029 13.9998Z" fill="#6100FF"/>
</g>
</svg>
