<svg width="1920" height="1079" viewBox="0 0 1920 1079" fill="none" xmlns="http://www.w3.org/2000/svg">
<rect width="1920" height="1024" transform="translate(-21)" fill="white"/>
<path d="M2866.5 512C2866.5 590.039 2812.72 664.49 2715.2 732.292C2617.7 800.083 2476.59 861.154 2302.16 912.45C1953.32 1015.04 1471.37 1078.5 939 1078.5C406.632 1078.5 -75.3187 1015.04 -424.161 912.45C-598.585 861.154 -739.703 800.083 -837.203 732.292C-934.718 664.49 -988.5 590.039 -988.5 512C-988.5 433.961 -934.718 359.511 -837.203 291.709C-739.703 223.917 -598.585 162.846 -424.161 111.55C-75.3187 8.96022 406.632 -54.5 939 -54.5C1471.37 -54.5 1953.32 8.96022 2302.16 111.55C2476.59 162.846 2617.7 223.917 2715.2 291.709C2812.72 359.511 2866.5 433.961 2866.5 512Z" stroke="#F2EBFF"/>
<path d="M2788.01 512C2788.01 586.852 2736.42 658.266 2642.88 723.306C2549.35 788.336 2413.98 846.92 2246.66 896.127C1912.02 994.539 1449.69 1055.42 939.001 1055.42C428.308 1055.42 -34.0192 994.539 -368.656 896.127C-535.978 846.92 -671.348 788.336 -764.877 723.306C-858.419 658.266 -910.005 586.852 -910.005 512C-910.005 437.148 -858.419 365.734 -764.877 300.694C-671.348 235.664 -535.978 177.08 -368.656 127.873C-34.0192 29.4604 428.308 -31.416 939.001 -31.416C1449.69 -31.416 1912.02 29.4604 2246.66 127.873C2413.98 177.08 2549.35 235.664 2642.88 300.694C2736.42 365.734 2788.01 437.148 2788.01 512Z" stroke="#F2EBFF"/>
<path d="M2710.12 512C2710.12 583.69 2660.72 652.091 2571.11 714.391C2481.53 776.681 2351.86 832.796 2191.59 879.931C1871.04 974.199 1428.19 1032.51 939 1032.51C449.815 1032.51 6.95892 974.199 -313.584 879.931C-473.859 832.796 -603.526 776.681 -693.113 714.391C-782.715 652.091 -832.121 583.69 -832.121 512C-832.121 440.311 -782.715 371.91 -693.113 309.61C-603.526 247.32 -473.859 191.204 -313.584 144.07C6.95892 49.802 449.815 -8.51074 939 -8.51074C1428.19 -8.51074 1871.04 49.802 2191.59 144.07C2351.86 191.204 2481.53 247.32 2571.11 309.61C2660.72 371.91 2710.12 440.311 2710.12 512Z" stroke="#F2EBFF"/>
<path d="M2627.68 512C2627.68 580.342 2580.58 645.554 2495.15 704.953C2409.73 764.342 2286.1 817.846 2133.29 862.787C1827.67 952.667 1405.42 1008.27 939.001 1008.27C472.581 1008.27 50.3361 952.667 -255.288 862.787C-408.103 817.846 -531.733 764.342 -617.148 704.953C-702.578 645.554 -749.678 580.342 -749.678 512C-749.678 443.658 -702.578 378.446 -617.148 319.047C-531.733 259.658 -408.103 206.154 -255.288 161.213C50.3361 71.3333 472.581 15.7344 939.001 15.7344C1405.42 15.7344 1827.67 71.3333 2133.29 161.213C2286.1 206.154 2409.73 259.658 2495.15 319.047C2580.58 378.446 2627.68 443.658 2627.68 512Z" stroke="#F2EBFF"/>
<path d="M2545.44 512C2545.44 577.002 2500.64 639.033 2419.37 695.538C2338.12 752.034 2220.51 802.932 2075.13 845.684C1784.39 931.187 1382.71 984.079 939 984.079C495.291 984.079 93.6066 931.187 -197.134 845.684C-342.508 802.932 -460.116 752.034 -541.369 695.538C-622.637 639.033 -667.436 577.002 -667.436 512C-667.436 446.997 -622.637 384.967 -541.369 328.461C-460.116 271.966 -342.508 221.068 -197.134 178.316C93.6066 92.8127 495.291 39.9209 939 39.9209C1382.71 39.9209 1784.39 92.8127 2075.13 178.316C2220.51 221.068 2338.12 271.966 2419.37 328.461C2500.64 384.967 2545.44 446.997 2545.44 512Z" stroke="#F2EBFF"/>
<path d="M2463.19 512C2463.19 573.663 2420.7 632.512 2343.59 686.124C2266.5 739.726 2154.91 788.018 2016.98 828.582C1741.12 909.708 1360 959.893 939.001 959.893C518.003 959.893 136.879 909.708 -138.979 828.582C-276.911 788.018 -388.497 739.726 -465.589 686.124C-542.695 632.512 -585.192 573.663 -585.192 512C-585.192 450.337 -542.695 391.488 -465.589 337.876C-388.497 284.274 -276.911 235.982 -138.979 195.418C136.879 114.292 518.003 64.1074 939.001 64.1074C1360 64.1074 1741.12 114.292 2016.98 195.418C2154.91 235.982 2266.5 284.274 2343.59 337.876C2420.7 391.488 2463.19 450.337 2463.19 512Z" stroke="#F2EBFF"/>
<path d="M2380.95 512C2380.95 570.324 2340.76 625.991 2267.81 676.71C2194.88 727.418 2089.32 773.104 1958.83 811.479C1697.85 888.229 1337.29 935.706 939.001 935.706C540.713 935.706 180.151 888.229 -80.8242 811.479C-211.315 773.104 -316.879 727.418 -389.809 676.71C-462.754 625.991 -502.949 570.324 -502.949 512C-502.949 453.676 -462.754 398.009 -389.809 347.29C-316.879 296.582 -211.315 250.896 -80.8242 212.521C180.151 135.771 540.713 88.2939 939.001 88.2939C1337.29 88.2939 1697.85 135.771 1958.83 212.521C2089.32 250.896 2194.88 296.582 2267.81 347.29C2340.76 398.009 2380.95 453.676 2380.95 512Z" stroke="#F2EBFF"/>
<path d="M2298.71 512C2298.71 566.984 2260.81 619.47 2192.03 667.295C2123.26 715.11 2023.72 758.189 1900.67 794.377C1654.58 866.749 1314.58 911.519 939 911.519C563.424 911.519 223.422 866.749 -22.6701 794.377C-145.719 758.189 -245.261 715.11 -314.029 667.295C-382.812 619.47 -420.707 566.984 -420.707 512C-420.707 457.016 -382.812 404.53 -314.029 356.705C-245.261 308.89 -145.719 265.81 -22.6701 229.623C223.422 157.251 563.424 112.48 939 112.48C1314.58 112.48 1654.58 157.251 1900.67 229.623C2023.72 265.81 2123.26 308.89 2192.03 356.705C2260.81 404.53 2298.71 457.016 2298.71 512Z" stroke="#F2EBFF"/>
<path d="M2216.47 512.001C2216.47 563.646 2180.87 612.95 2116.25 657.882C2051.64 702.803 1958.12 743.277 1842.52 777.275C1611.31 845.271 1291.87 887.334 939.001 887.334C586.134 887.334 266.693 845.271 35.4844 777.275C-80.1233 743.277 -173.643 702.803 -238.25 657.882C-302.871 612.95 -338.464 563.646 -338.464 512.001C-338.464 460.356 -302.871 411.052 -238.25 366.12C-173.643 321.199 -80.1233 280.725 35.4844 246.727C266.693 178.731 586.134 136.668 939.001 136.668C1291.87 136.668 1611.31 178.731 1842.52 246.727C1958.12 280.725 2051.64 321.199 2116.25 366.12C2180.87 411.052 2216.47 460.356 2216.47 512.001Z" stroke="#F2EBFF"/>
<path d="M2134.22 512.001C2134.22 560.306 2100.93 606.429 2040.47 648.467C1980.03 690.494 1892.53 728.362 1784.36 760.173C1568.04 823.791 1269.16 863.147 939 863.147C608.845 863.147 309.964 823.791 93.6386 760.173C-14.5275 728.362 -102.025 690.494 -162.47 648.467C-222.93 606.429 -256.221 560.306 -256.221 512.001C-256.221 463.696 -222.93 417.572 -162.47 375.535C-102.025 333.507 -14.5275 295.639 93.6386 263.829C309.964 200.21 608.845 160.854 939 160.854C1269.16 160.854 1568.04 200.21 1784.36 263.829C1892.53 295.639 1980.03 333.507 2040.47 375.535C2100.93 417.572 2134.22 463.696 2134.22 512.001Z" stroke="#F2EBFF"/>
<path d="M2058.31 512C2058.31 557.223 2027.14 600.409 1970.52 639.776C1913.92 679.132 1831.98 714.595 1730.68 744.385C1528.09 803.964 1248.19 840.82 939 840.82C629.809 840.82 349.907 803.964 147.319 744.385C46.0223 714.595 -35.9166 679.132 -92.5199 639.776C-149.138 600.409 -180.305 557.223 -180.305 512C-180.305 466.777 -149.138 423.591 -92.5199 384.224C-35.9166 344.868 46.0223 309.405 147.319 279.615C349.907 220.037 629.809 183.18 939 183.18C1248.19 183.18 1528.09 220.037 1730.68 279.615C1831.98 309.405 1913.92 344.868 1970.52 384.224C2027.14 423.591 2058.31 466.777 2058.31 512Z" stroke="#F2EBFF"/>
<path d="M1969.74 512C1969.74 553.626 1941.05 593.387 1888.91 629.637C1836.79 665.877 1761.34 698.534 1668.05 725.967C1481.49 780.832 1223.73 814.773 939 814.773C654.266 814.773 396.506 780.832 209.947 725.967C116.663 698.534 41.2098 665.877 -10.9117 629.637C-63.0479 593.387 -91.7368 553.626 -91.7368 512C-91.7368 470.374 -63.0479 430.613 -10.9117 394.363C41.2098 358.123 116.663 325.466 209.947 298.033C396.506 243.168 654.266 209.227 939 209.227C1223.73 209.227 1481.49 243.168 1668.05 298.033C1761.34 325.466 1836.79 358.123 1888.91 394.363C1941.05 430.613 1969.74 470.374 1969.74 512Z" stroke="#F2EBFF"/>
<path d="M1887.49 512.001C1887.49 550.288 1861.11 586.867 1813.13 620.224C1765.17 653.57 1695.74 683.621 1609.9 708.866C1438.22 759.354 1201.02 790.588 939 790.588C676.976 790.588 439.777 759.354 268.1 708.866C182.259 683.621 112.827 653.57 64.8675 620.224C16.893 586.867 -9.49463 550.288 -9.49463 512.001C-9.49463 473.714 16.893 437.135 64.8675 403.778C112.827 370.432 182.259 340.381 268.1 315.136C439.777 264.649 676.976 233.414 939 233.414C1201.02 233.414 1438.22 264.649 1609.9 315.136C1695.74 340.381 1765.17 370.432 1813.13 403.778C1861.11 437.135 1887.49 473.714 1887.49 512.001Z" stroke="#F2EBFF"/>
<path d="M1805.25 512.001C1805.25 546.948 1781.17 580.346 1737.35 610.809C1693.55 641.262 1630.15 668.707 1551.75 691.763C1394.95 737.874 1178.31 766.402 939.001 766.402C699.688 766.402 483.049 737.874 326.256 691.763C247.856 668.707 184.446 641.262 140.648 610.809C96.8353 580.346 72.749 546.948 72.749 512.001C72.749 477.054 96.8353 443.656 140.648 413.193C184.446 382.74 247.856 355.295 326.256 332.239C483.049 286.128 699.688 257.601 939.001 257.601C1178.31 257.601 1394.95 286.128 1551.75 332.239C1630.15 355.295 1693.55 382.74 1737.35 413.193C1781.17 443.656 1805.25 477.054 1805.25 512.001Z" stroke="#F2EBFF"/>
<path d="M1716.68 512.001C1716.68 543.352 1695.07 573.324 1655.74 600.671C1616.43 628.007 1559.5 652.645 1489.12 673.345C1348.35 714.743 1153.86 740.354 939 740.354C724.145 740.354 529.649 714.743 388.883 673.345C318.497 652.645 261.573 628.007 222.256 600.671C182.925 573.324 161.317 543.352 161.317 512.001C161.317 480.65 182.925 450.678 222.256 423.331C261.573 395.995 318.497 371.356 388.883 350.657C529.649 309.259 724.145 283.647 939 283.647C1153.86 283.647 1348.35 309.259 1489.12 350.657C1559.5 371.356 1616.43 395.995 1655.74 423.331C1695.07 450.678 1716.68 480.65 1716.68 512.001Z" stroke="#F2EBFF"/>
<path d="M1634.44 512.001C1634.44 540.013 1615.13 566.803 1579.96 591.256C1544.81 615.699 1493.91 637.732 1430.96 656.243C1305.08 693.263 1131.14 716.168 939 716.168C746.856 716.168 572.92 693.263 447.037 656.243C384.093 637.732 333.19 615.699 298.036 591.256C262.867 566.803 243.56 540.013 243.56 512.001C243.56 483.989 262.867 457.199 298.036 432.746C333.19 408.303 384.093 386.271 447.037 367.759C572.92 330.739 746.856 307.834 939 307.834C1131.14 307.834 1305.08 330.739 1430.96 367.759C1493.91 386.271 1544.81 408.303 1579.96 432.746C1615.13 457.199 1634.44 483.989 1634.44 512.001Z" stroke="#F2EBFF"/>
<path d="M1552.4 512.001C1552.4 536.681 1535.38 560.298 1504.37 581.864C1473.36 603.421 1428.47 622.854 1372.95 639.182C1261.91 671.836 1108.49 692.04 938.999 692.04C769.51 692.04 616.086 671.836 505.05 639.182C449.528 622.854 404.634 603.421 373.631 581.864C342.613 560.298 325.603 536.681 325.603 512.001C325.603 487.321 342.613 463.704 373.631 442.138C404.634 420.581 449.528 401.148 505.05 384.82C616.086 352.166 769.51 331.962 938.999 331.962C1108.49 331.962 1261.91 352.166 1372.95 384.82C1428.47 401.148 1473.36 420.581 1504.37 442.138C1535.38 463.704 1552.4 487.321 1552.4 512.001Z" stroke="#F2EBFF"/>
<path d="M1469.95 512.001C1469.95 533.334 1455.25 553.761 1428.4 572.427C1401.57 591.083 1362.72 607.904 1314.65 622.038C1218.54 650.305 1085.72 667.795 939 667.795C792.277 667.795 659.463 650.305 563.346 622.038C515.284 607.904 476.426 591.083 449.595 572.427C422.749 553.761 408.045 533.334 408.045 512.001C408.045 490.668 422.749 470.241 449.595 451.575C476.426 432.919 515.284 416.099 563.346 401.964C659.463 373.697 792.277 356.207 939 356.207C1085.72 356.207 1218.54 373.697 1314.65 401.964C1362.72 416.099 1401.57 432.919 1428.4 451.575C1455.25 470.241 1469.95 490.668 1469.95 512.001Z" stroke="#F2EBFF"/>
<path d="M1387.91 512.001C1387.91 530.002 1375.5 547.256 1352.81 563.035C1330.13 578.804 1297.28 593.025 1256.64 604.977C1175.37 628.877 1063.07 643.667 939.001 643.667C814.933 643.667 702.63 628.877 621.36 604.977C580.722 593.025 547.872 578.804 525.192 563.035C502.498 547.256 490.09 530.002 490.09 512.001C490.09 494 502.498 476.746 525.192 460.966C547.872 445.197 580.722 430.976 621.36 419.025C702.63 395.125 814.933 380.335 939.001 380.335C1063.07 380.335 1175.37 395.125 1256.64 419.025C1297.28 430.976 1330.13 445.197 1352.81 460.966C1375.5 476.746 1387.91 494 1387.91 512.001Z" stroke="#F2EBFF"/>
<path d="M1305.47 512.001C1305.47 526.655 1295.37 540.72 1276.84 553.598C1258.34 566.467 1231.52 578.076 1198.34 587.833C1131.99 607.346 1040.3 619.422 938.999 619.422C837.697 619.422 746.004 607.346 679.653 587.833C646.474 578.076 619.661 566.467 601.153 553.598C582.631 540.72 572.529 526.655 572.529 512.001C572.529 497.347 582.631 483.283 601.153 470.404C619.661 457.535 646.474 445.927 679.653 436.169C746.004 416.656 837.697 404.58 938.999 404.58C1040.3 404.58 1131.99 416.656 1198.34 436.169C1231.52 445.927 1258.34 457.535 1276.84 470.404C1295.37 483.283 1305.47 497.347 1305.47 512.001Z" stroke="#F2EBFF"/>
<path d="M1235.88 512.001C1235.88 523.829 1227.72 535.201 1212.72 545.632C1197.74 556.052 1176.02 565.456 1149.14 573.361C1095.38 589.171 1021.08 598.956 938.999 598.956C856.914 598.956 782.618 589.171 728.861 573.361C701.979 565.456 680.26 556.052 665.274 545.632C650.273 535.201 642.119 523.829 642.119 512.001C642.119 500.172 650.273 488.8 665.274 478.369C680.26 467.949 701.979 458.545 728.861 450.64C782.618 434.83 856.914 425.045 938.999 425.045C1021.08 425.045 1095.38 434.83 1149.14 450.64C1176.02 458.545 1197.74 467.949 1212.72 478.369C1227.72 488.8 1235.88 500.172 1235.88 512.001Z" stroke="#F2EBFF"/>
<path d="M1153.64 512.001C1153.64 520.489 1147.78 528.681 1136.94 536.217C1126.12 543.744 1110.42 550.542 1090.98 556.259C1052.11 567.691 998.373 574.77 938.998 574.77C879.624 574.77 825.889 567.691 787.015 556.259C767.574 550.542 751.878 543.744 741.053 536.217C730.214 528.681 724.361 520.489 724.361 512.001C724.361 503.512 730.214 495.32 741.053 487.784C751.878 480.258 767.574 473.459 787.015 467.742C825.889 456.31 879.624 449.231 938.998 449.231C998.373 449.231 1052.11 456.31 1090.98 467.742C1110.42 473.459 1126.12 480.258 1136.94 487.784C1147.78 495.32 1153.64 503.512 1153.64 512.001Z" stroke="#F2EBFF"/>
<path d="M1084.05 512.001C1084.05 517.664 1080.14 523.163 1072.82 528.251C1065.52 533.329 1054.92 537.922 1041.77 541.788C1015.49 549.517 979.156 554.304 938.998 554.304C898.841 554.304 862.503 549.517 836.222 541.788C823.078 537.922 812.478 533.329 805.174 528.251C797.857 523.163 793.951 517.664 793.951 512.001C793.951 506.338 797.857 500.838 805.174 495.75C812.478 490.672 823.078 486.079 836.222 482.214C862.503 474.485 898.841 469.697 938.998 469.697C979.156 469.697 1015.49 474.485 1041.77 482.214C1054.92 486.079 1065.52 490.672 1072.82 495.75C1080.14 500.838 1084.05 506.338 1084.05 512.001Z" stroke="#F2EBFF"/>
<path d="M1021.08 512.001C1021.08 515.083 1018.94 518.126 1014.81 520.98C1010.69 523.824 1004.7 526.404 997.254 528.58C982.366 532.929 961.77 535.626 938.998 535.626C916.227 535.626 895.631 532.929 880.743 528.58C873.296 526.404 867.306 523.824 863.189 520.98C859.057 518.126 856.915 515.083 856.915 512.001C856.915 508.919 859.057 505.876 863.189 503.022C867.306 500.178 873.296 497.597 880.743 495.422C895.631 491.073 916.227 488.376 938.998 488.376C961.77 488.376 982.366 491.073 997.254 495.422C1004.7 497.597 1010.69 500.178 1014.81 503.022C1018.94 505.876 1021.08 508.919 1021.08 512.001Z" stroke="#F2EBFF"/>
</svg>
