<svg width="10" height="17" viewBox="0 0 10 17" fill="none" xmlns="http://www.w3.org/2000/svg">
<path d="M9.47635 8.96122L1.97635 16.4612C1.90667 16.5309 1.82395 16.5862 1.7329 16.6239C1.64186 16.6616 1.54428 16.681 1.44573 16.681C1.34718 16.681 1.2496 16.6616 1.15856 16.6239C1.06751 16.5862 0.984787 16.5309 0.915104 16.4612C0.845421 16.3915 0.790146 16.3088 0.752434 16.2178C0.714722 16.1267 0.695312 16.0291 0.695312 15.9306C0.695312 15.832 0.714722 15.7345 0.752434 15.6434C0.790146 15.5524 0.845421 15.4697 0.915104 15.4L7.88542 8.43059L0.915104 1.46122C0.774374 1.32049 0.695312 1.12962 0.695312 0.930593C0.695313 0.73157 0.774374 0.540698 0.915104 0.399968C1.05583 0.259237 1.24671 0.180176 1.44573 0.180176C1.64475 0.180176 1.83562 0.259237 1.97635 0.399968L9.47635 7.89997C9.54609 7.96962 9.60141 8.05234 9.63915 8.14339C9.67689 8.23444 9.69632 8.33203 9.69632 8.43059C9.69632 8.52915 9.67689 8.62675 9.63915 8.7178C9.60141 8.80885 9.54609 8.89156 9.47635 8.96122Z" fill="white"/>
</svg>
