<svg width="120" height="55" viewBox="0 0 120 55" fill="none" xmlns="http://www.w3.org/2000/svg">
<g clip-path="url(#clip0_74_644)">
<path opacity="0.5" d="M107.368 37.2344H97.853V38.7573H107.368V37.2344Z" fill="#111111"/>
<path opacity="0.5" d="M107.368 46.0381H97.853V47.561H107.368V46.0381Z" fill="#111111"/>
<path d="M107.368 29.9561H97.853V37.2345H107.368V29.9561Z" fill="#5F5E5E"/>
<path d="M107.368 38.7598H97.853V46.0382H107.368V38.7598Z" fill="#5F5E5E"/>
<path d="M107.368 47.5376H97.853V54.8161H107.368V47.5376Z" fill="#5F5E5E"/>
<path opacity="0.5" d="M120 47.5376H107.368V54.8161H120V47.5376Z" fill="#111111"/>
<path opacity="0.5" d="M120 38.7598H107.368V46.0382H120V38.7598Z" fill="#111111"/>
<path opacity="0.5" d="M24.6724 46.5605V29.9561H8.35265C3.75518 29.9561 0.0234375 33.664 0.0234375 38.2583H16.3432C20.9407 38.2583 24.6745 41.9663 24.6745 46.5605H24.6724Z" fill="#111111"/>
<path opacity="0.5" d="M24.6744 46.5604H8.28477C3.73386 46.5604 0.0232837 42.8524 0 38.3047V54.8626H16.3875C20.9617 54.8626 24.6723 51.1547 24.6723 46.5837V46.5604H24.6744Z" fill="#111111"/>
<path d="M37.6244 0.34082H28.1099V7.64257H37.6244V0.34082Z" fill="#5F5E5E"/>
<path opacity="0.5" d="M37.6244 17.605H28.1099V25.2473H37.6244V17.605Z" fill="#111111"/>
<path opacity="0.5" d="M24.6744 0.34082H8.3525C3.75503 0.34082 0.0232837 4.0488 0 8.64307H16.3198C20.9172 8.64307 24.6511 12.3511 24.6511 16.9453V0.34082H24.6744Z" fill="#111111"/>
<path opacity="0.5" d="M0 8.6665V25.2477H16.3875C20.9617 25.2477 24.6723 21.5397 24.6723 16.9688V16.9455H8.28477C3.71058 16.9455 0 13.2375 0 8.6665Z" fill="#111111"/>
<path d="M8.28477 16.9453H24.6723C24.6723 12.3511 20.9172 8.64307 16.3409 8.64307H0V8.66633C0 13.2373 3.71058 16.9453 8.28477 16.9453Z" fill="#5F5E5E"/>
<path opacity="0.5" d="M37.6244 7.64258H28.1099V10.4177H37.6244V7.64258Z" fill="#111111"/>
<path opacity="0.5" d="M52.763 0.34082H37.6265V7.64257H52.763V0.34082Z" fill="#111111"/>
<path d="M37.6708 10.4175H28.1562V17.605H37.6708V10.4175Z" fill="#5F5E5E"/>
<path opacity="0.5" d="M47.141 10.4175H37.6265V17.605H47.141V10.4175Z" fill="#111111"/>
<path opacity="0.5" d="M76.686 21.5626C78.9382 23.7243 81.9905 25.0654 85.3582 25.0654C88.9777 25.0654 92.2311 23.5191 94.5087 21.0845L85.8365 12.4185L76.686 21.5626Z" fill="#111111"/>
<path opacity="0.5" d="M85.3558 0.0235936C82.0559 0.0235936 79.0502 1.32022 76.8213 3.39103L85.8342 12.3976L94.392 3.8458C92.1166 1.48098 88.9076 0.00244141 85.3791 0.00244141L85.3558 0.0257088V0.0235936Z" fill="#111111"/>
<path d="M76.8215 3.41211C74.3619 5.68597 72.8379 8.93918 72.8379 12.5562C72.8379 16.1732 74.3175 19.289 76.6839 21.5628L85.8344 12.4187L76.8215 3.41211Z" fill="#5F5E5E"/>
<path opacity="0.5" d="M48.0049 25.2476H60.4109V0.34082L48.0049 25.2476Z" fill="#111111"/>
<path d="M60.4106 25.2476H72.8166L60.4106 0.34082V25.2476Z" fill="#5F5E5E"/>
<path d="M16.3198 38.2581H0C0 42.8291 3.71058 46.5371 8.28477 46.5371H24.6723C24.6723 41.9428 20.9172 38.2349 16.3409 38.2349L16.3176 38.2581H16.3198Z" fill="#5F5E5E"/>
<path opacity="0.5" d="M120 29.9561H107.368V37.2345H120V29.9561Z" fill="#111111"/>
<path opacity="0.5" d="M43.8156 29.9561H28.2007H37.6242V46.5605H43.86C48.231 46.5605 51.7807 42.8526 51.7807 38.2816C51.7807 33.7106 48.2077 29.9561 43.7923 29.9561H43.8156Z" fill="#111111"/>
<path opacity="0.5" d="M28.2009 29.9561H28.1099V54.8628H37.6244V46.5605H28.2009V29.9561Z" fill="#111111"/>
<path d="M37.6242 29.9561H28.2007V46.5605H37.6242V29.9561Z" fill="#5F5E5E"/>
<path opacity="0.5" d="M76.686 51.4976C78.9382 53.6594 81.9905 55.0004 85.3582 55.0004C88.9777 55.0004 92.2311 53.4542 94.5087 51.0196L85.8365 42.3535L76.686 51.4976Z" fill="#111111"/>
<path opacity="0.5" d="M85.3558 29.9562C82.0559 29.9562 79.0502 31.2528 76.8213 33.3236L85.8342 42.3303L94.392 33.7784C92.1166 31.4136 88.9076 29.9351 85.3791 29.9351L85.3558 29.9583V29.9562Z" fill="#111111"/>
<path d="M76.8215 33.3447C74.3619 35.6186 72.8379 38.8718 72.8379 42.4888C72.8379 46.1059 74.3175 49.2216 76.6839 51.4954L85.8344 42.3513L76.8215 33.3447Z" fill="#5F5E5E"/>
<path opacity="0.5" d="M48.0049 54.8862H60.4109V29.9795L48.0049 54.8862Z" fill="#111111"/>
<path d="M60.4106 54.8862H72.8166L60.4106 29.9795V54.8862Z" fill="#5F5E5E"/>
</g>
<defs>
<clipPath id="clip0_74_644">
<rect width="120" height="55" fill="white"/>
</clipPath>
</defs>
</svg>
