<svg width="28" height="28" viewBox="0 0 28 28" fill="none" xmlns="http://www.w3.org/2000/svg">
<path d="M27.8985 10.5922C27.7774 10.2189 27.5491 9.88949 27.2422 9.645C26.9352 9.4005 26.5631 9.25171 26.1722 9.21715L18.7485 8.57715L15.8385 1.65715C15.687 1.29405 15.4314 0.983887 15.104 0.765725C14.7766 0.547562 14.3919 0.431152 13.9985 0.431152C13.605 0.431152 13.2204 0.547562 12.8929 0.765725C12.5655 0.983887 12.31 1.29405 12.1585 1.65715L9.25722 8.57715L1.82472 9.2209C1.43226 9.25388 1.05828 9.402 0.749663 9.64667C0.44105 9.89135 0.211546 10.2217 0.0899302 10.5963C-0.0316851 10.9709 -0.0399976 11.373 0.0660352 11.7523C0.172068 12.1316 0.387726 12.4712 0.685965 12.7284L6.32472 17.6559L4.63472 24.9734C4.54535 25.3563 4.57085 25.7571 4.70802 26.1256C4.8452 26.4941 5.08796 26.814 5.40596 27.0453C5.72396 27.2766 6.10308 27.4091 6.49593 27.4261C6.88878 27.4431 7.27793 27.3439 7.61472 27.1409L13.9897 23.2659L20.3785 27.1409C20.7153 27.3439 21.1044 27.4431 21.4972 27.4261C21.8901 27.4091 22.2692 27.2766 22.5872 27.0453C22.9052 26.814 23.148 26.4941 23.2852 26.1256C23.4223 25.7571 23.4478 25.3563 23.3585 24.9734L21.6697 17.6484L27.3072 12.7284C27.6054 12.4703 27.8206 12.1298 27.9258 11.7497C28.0311 11.3696 28.0215 10.9669 27.8985 10.5922ZM25.996 11.2172L20.3585 16.1372C20.0841 16.3758 19.88 16.6848 19.7681 17.0308C19.6562 17.3768 19.6408 17.7468 19.7235 18.1009L21.4172 25.4309L15.0335 21.5559C14.722 21.3662 14.3644 21.2659 13.9997 21.2659C13.6351 21.2659 13.2774 21.3662 12.966 21.5559L6.59096 25.4309L8.27347 18.1059C8.35615 17.7518 8.34072 17.3818 8.22884 17.0358C8.11695 16.6898 7.91284 16.3808 7.63847 16.1422L1.99847 11.2247C1.99801 11.2209 1.99801 11.2171 1.99847 11.2134L9.42847 10.5709C9.79122 10.5389 10.1384 10.4085 10.4324 10.1937C10.7265 9.97897 10.9564 9.68797 11.0972 9.35215L13.9985 2.4409L16.8985 9.35215C17.0393 9.68797 17.2692 9.97897 17.5632 10.1937C17.8573 10.4085 18.2045 10.5389 18.5672 10.5709L25.9985 11.2134C25.9985 11.2134 25.9985 11.2209 25.9985 11.2222L25.996 11.2172Z" fill="#E0CEFF"/>
</svg>
