<svg width="29" height="28" viewBox="0 0 29 28" fill="none" xmlns="http://www.w3.org/2000/svg">
<path d="M27.311 12.7284L21.6735 17.6484L23.3622 24.9734C23.4516 25.3563 23.4261 25.7571 23.2889 26.1256C23.1517 26.4941 22.909 26.814 22.591 27.0453C22.273 27.2766 21.8938 27.4091 21.501 27.4261C21.1081 27.4431 20.719 27.3439 20.3822 27.1409L13.9935 23.2659L7.61846 27.1409C7.28168 27.3439 6.89253 27.4431 6.49968 27.4261C6.10683 27.4091 5.72771 27.2766 5.40971 27.0453C5.09171 26.814 4.84895 26.4941 4.71177 26.1256C4.5746 25.7571 4.5491 25.3563 4.63846 24.9734L6.32472 17.6559L0.685965 12.7284C0.387726 12.4712 0.172068 12.1316 0.0660352 11.7523C-0.0399976 11.373 -0.0316851 10.9709 0.0899302 10.5963C0.211546 10.2217 0.44105 9.89135 0.749663 9.64667C1.05828 9.402 1.43226 9.25388 1.82472 9.2209L9.25722 8.57715L12.1585 1.65715C12.31 1.29405 12.5655 0.983887 12.8929 0.765725C13.2204 0.547562 13.605 0.431152 13.9985 0.431152C14.3919 0.431152 14.7766 0.547562 15.104 0.765725C15.4314 0.983887 15.687 1.29405 15.8385 1.65715L18.7485 8.57715L26.1785 9.2209C26.5709 9.25388 26.9449 9.402 27.2535 9.64667C27.5621 9.89135 27.7916 10.2217 27.9132 10.5963C28.0349 10.9709 28.0432 11.373 27.9371 11.7523C27.8311 12.1316 27.6155 12.4712 27.3172 12.7284H27.311Z" fill="#C9A8FF"/>
</svg>
