<svg width="32" height="33" viewBox="0 0 32 33" fill="none" xmlns="http://www.w3.org/2000/svg">
<g id="ArrowUp">
<path id="Vector" d="M26.0612 15.5613C25.9218 15.7011 25.7563 15.8121 25.5739 15.8878C25.3916 15.9635 25.1961 16.0025 24.9987 16.0025C24.8013 16.0025 24.6058 15.9635 24.4235 15.8878C24.2411 15.8121 24.0756 15.7011 23.9362 15.5613L17.4999 9.12505V27.5C17.4999 27.8979 17.3419 28.2794 17.0606 28.5607C16.7793 28.842 16.3978 29 15.9999 29C15.6021 29 15.2206 28.842 14.9393 28.5607C14.658 28.2794 14.4999 27.8979 14.4999 27.5V9.12505L8.0612 15.5613C7.7794 15.8431 7.39721 16.0014 6.9987 16.0014C6.60018 16.0014 6.21799 15.8431 5.9362 15.5613C5.6544 15.2795 5.49609 14.8973 5.49609 14.4988C5.49609 14.1003 5.6544 13.7181 5.9362 13.4363L14.9362 4.4363C15.0756 4.29646 15.2411 4.1855 15.4235 4.1098C15.6058 4.03409 15.8013 3.99512 15.9987 3.99512C16.1961 3.99512 16.3916 4.03409 16.5739 4.1098C16.7563 4.1855 16.9218 4.29646 17.0612 4.4363L26.0612 13.4363C26.201 13.5757 26.312 13.7412 26.3877 13.9236C26.4634 14.1059 26.5024 14.3014 26.5024 14.4988C26.5024 14.6962 26.4634 14.8917 26.3877 15.074C26.312 15.2564 26.201 15.4219 26.0612 15.5613Z" fill="#6100FF"/>
</g>
</svg>
